<svg xmlns="http://www.w3.org/2000/svg" version="1.1" xmlns:xlink="http://www.w3.org/1999/xlink" xmlns:svgjs="http://svgjs.dev/svgjs" viewBox="0 0 1920 1080" class="overflow-hidden rounded-md drop-shadow-lg transition duration-300" style="overflow: hidden; height: 85vh;"><rect width="1920" height="1080" fill="#7b72ab"/><g clip-path="url(&quot;#SvgjsClipPath1082&quot;)"><g transform="matrix(-1.0997504693574909,-0.3362274604311468,0.3362274604311468,-1.0997504693574909,1770.1403742475147,1446.3862986897143)"><path d="M0,-1080C6.594857146365101,-1022.9152090693361,49.1244260924155,-870.0282148205329,39.569142878190604,-737.4912544160168C30.01385966396571,-604.9542940115007,-45.21433878894876,-434.1107057074671,-57.331699285349345,-284.77823757290366C-69.44905978174992,-135.4457694383402,-49.12017741251483,28.98346660897974,-33.1350201002129,158.50355439136405C-17.14986278791097,288.0236421737484,30.42080718209302,361.86199116846944,38.57924458846222,492.34228912140225C46.73768199483141,622.822587074335,13.741727302853809,795.4522621245733,15.815604338002288,941.3853421089609C17.88948137315077,1087.3184220933485,58.22726549683706,1228.515032288714,51.022506799353096,1367.9407690277283C43.81774810186913,1507.3665057667424,-18.909196713676003,1645.929890714334,-27.412947846901517,1777.939762543046C-35.91669898012703,1909.949634371758,-4.568824641150253,2096.3232937571743,0,2160L 1920 2160 L 1920 -1080 Z" fill="url(&quot;#SvgjsLinearGradient1078&quot;)"/><path d="M480,-1080C472.8246037062927,-992.7277634795975,431.0387958214037,-704.3957975767863,436.9476222377561,-556.366580877585C442.8564486541085,-408.3373641783836,518.5636035575038,-338.7100705748594,515.4529584981142,-191.8246998047916C512.3423134387245,-44.93932903472384,431.4331978260967,166.1641743412961,418.2837518814184,324.94564374282163C405.13430593674013,483.7271131443472,422.403227092217,615.0980189476463,436.5562828300443,760.8641166043616C450.70933856787167,906.6302142610768,503.37851569027293,1036.9732336068887,503.2020863083826,1199.542229683113C503.0256569264923,1362.1112257593372,439.3647209234327,1576.2017980088929,435.49770653870223,1736.2780930617073C431.6306921539718,1896.3543881145217,472.5829510897837,2089.379682176951,480,2160L 1920 2160 L 1920 -1080 Z" fill="url(&quot;#SvgjsLinearGradient1079&quot;)"/><path d="M960,-1080C966.6475263943598,-1008.3236007285392,991.0762083384232,-796.6382148314128,999.8851583661592,-649.9416043712349C1008.6941083938952,-503.244993911057,1014.4561280790106,-369.7027960071974,1012.8537001664163,-199.82033723893258C1011.251272253822,-29.937878470667783,998.0219376595103,203.36784182706228,990.2705908905932,369.3531482383539C982.5192441216761,535.3384546496455,981.897802602643,642.8724256832533,966.3456195529136,796.0915012288174C950.7934365031842,949.3105767743815,891.513933290598,1129.6137800915071,896.9574925922171,1288.6676015117387C902.4010518938363,1447.7214229319702,988.4998907946648,1605.192363335496,999.0069753626286,1750.4144297502064C1009.5140599305925,1895.6364961649167,966.5011625604382,2091.735738291701,960,2160L 1920 2160 L 1920 -1080 Z" fill="url(&quot;#SvgjsLinearGradient1080&quot;)"/><path d="M1440,-1080C1437.9428959944778,-969.0603573783679,1417.4345537901509,-639.6644404943593,1427.6573759668665,-414.36214427020764C1437.8801981435822,-189.059848046056,1504.707753729347,60.6889827984991,1501.3369330602934,271.8137773449097C1497.96611239124,482.9385718913203,1413.783748122113,643.7880776734488,1407.4324519525453,852.3866230082558C1401.0811557829777,1060.985168343063,1457.8012313683116,1305.4694865217944,1463.2291560428873,1523.4050493537518C1468.657080717463,1741.3406121857092,1443.8715260071478,2053.9008415589587,1440,2160L 1920 2160 L 1920 -1080 Z" fill="url(&quot;#SvgjsLinearGradient1081&quot;)"/></g></g><defs><linearGradient x1="0.1" y1="0" x2="0" y2="1" id="SvgjsLinearGradient1078"><stop stop-color="#7b72ab" offset="0"/><stop stop-color="#7272ab" offset="0"/></linearGradient><linearGradient x1="0.1" y1="0" x2="0" y2="1" id="SvgjsLinearGradient1079"><stop stop-color="#a29bc4" offset="0"/><stop stop-color="#9b9bc4" offset="0.25"/></linearGradient><linearGradient x1="0.1" y1="0" x2="0" y2="1" id="SvgjsLinearGradient1080"><stop stop-color="#c8c5dc" offset="0"/><stop stop-color="#c5c6dc" offset="0.5"/></linearGradient><linearGradient x1="0.1" y1="0" x2="0" y2="1" id="SvgjsLinearGradient1081"><stop stop-color="#efeef5" offset="0"/><stop stop-color="#eeeef5" offset="0.75"/></linearGradient><clipPath id="SvgjsClipPath1082"><rect width="1920" height="1080"/></clipPath></defs></svg>