<svg xmlns="http://www.w3.org/2000/svg" version="1.1" xmlns:xlink="http://www.w3.org/1999/xlink" xmlns:svgjs="http://svgjs.dev/svgjs" viewBox="0 0 1920 1080" class="overflow-hidden rounded-md drop-shadow-lg transition duration-300" style="overflow: hidden; height: 85vh;"><rect width="1920" height="1080" fill="#42e8a9"/><g clip-path="url(&quot;#SvgjsClipPath1137&quot;)"><g transform="matrix(-1.0997504693574909,-0.3362274604311468,0.3362274604311468,-1.0997504693574909,1810.386679589964,1452.8308325686228)"><path d="M0,-1080C-3.4211220181125603,-1003.8832814527048,-30.378233130607164,-787.3152192931817,-20.52673210867536,-623.2996887162286C-10.67523108674356,-459.2841581392755,47.58861834160849,-253.85502587591446,59.1090061315908,-95.90681653828159C70.62939392157313,62.041392799351286,60.8970888830163,172.59792368424436,48.595594631218546,324.3895673095686C36.29410037942079,476.18121093489276,-7.325919026057671,668.4574581364927,-14.699959379195718,814.8430452136636C-22.073999732333764,961.2286322908344,-4.03842459987248,1061.6173627813753,4.351352512390264,1202.7030897725938C12.741129624653007,1343.7888167638123,36.36392871311246,1501.8079221230741,35.63870329438075,1661.357407160975C34.913477875649036,1820.906892198876,5.9397838823967914,2076.892901193496,0,2160L 1920 2160 L 1920 -1080 Z" fill="url(&quot;#SvgjsLinearGradient1133&quot;)"/><path d="M480,-1080C474.62108137913015,-964.6205653912485,442.44371405880116,-613.4091034514297,447.72648827478076,-387.72339234749137C453.00926249076036,-162.03768124355307,507.6469344597115,55.894729000983375,511.6966452958775,274.1142666236299C515.7463561320435,492.3338042462764,486.049904270682,717.162312355308,472.0247532917769,921.5938333883876C457.9996023128718,1126.025354421467,426.216531637743,1294.302365053505,427.54573942244684,1500.703392822107C428.8749472071507,1707.104420590709,471.2576232370745,2050.1172321370177,480,2160L 1920 2160 L 1920 -1080 Z" fill="url(&quot;#SvgjsLinearGradient1134&quot;)"/><path d="M960,-1080C950.0332417112425,-966.8009313420821,906.137103980604,-610.1034133224618,900.1994502674544,-400.8055880524922C894.2617965543047,-191.5077627825226,909.1337556460503,-39.429749022687474,924.374077721102,175.7869516198178C939.6143997961537,391.0036522623231,991.1163286802379,677.2326583561165,991.6413827177644,890.4946158025396C992.1664367552909,1103.7565732489627,932.7979657325552,1243.7744655987794,927.5244019462612,1455.358696298356C922.2508381599671,1666.9429269979328,954.5874003243769,2042.5597827163926,960,2160L 1920 2160 L 1920 -1080 Z" fill="url(&quot;#SvgjsLinearGradient1135&quot;)"/><path d="M1440,-1080C1437.9107931118647,-940.2320585736006,1425.4828243614825,-511.93158346245446,1427.4647586711876,-241.39235144160372C1429.4466929808927,29.146880579246982,1454.6217823568184,288.54685478532076,1451.891605858231,543.2353921251043C1449.1614293596438,797.9239294648879,1413.065633989369,1017.2781046179487,1411.0836996796638,1286.738872597098C1409.1017653699587,1556.1996405762472,1435.1806166132774,2014.456478766183,1440,2160L 1920 2160 L 1920 -1080 Z" fill="url(&quot;#SvgjsLinearGradient1136&quot;)"/></g></g><defs><linearGradient x1="0.1" y1="0" x2="0" y2="1" id="SvgjsLinearGradient1133"><stop stop-color="#42e8a9" offset="0"/><stop stop-color="#42e88d" offset="0"/></linearGradient><linearGradient x1="0.1" y1="0" x2="0" y2="1" id="SvgjsLinearGradient1134"><stop stop-color="#66ecb9" offset="0"/><stop stop-color="#66eca3" offset="0.25"/></linearGradient><linearGradient x1="0.1" y1="0" x2="0" y2="1" id="SvgjsLinearGradient1135"><stop stop-color="#89f1c9" offset="0"/><stop stop-color="#89f1b8" offset="0.5"/></linearGradient><linearGradient x1="0.1" y1="0" x2="0" y2="1" id="SvgjsLinearGradient1136"><stop stop-color="#adf5da" offset="0"/><stop stop-color="#adf5ce" offset="0.75"/></linearGradient><clipPath id="SvgjsClipPath1137"><rect width="1920" height="1080"/></clipPath></defs></svg>